<mxfile host="Electron" modified="2023-06-07T14:41:53.509Z" agent="Mozilla/5.0 (Windows NT 10.0; Win64; x64) AppleWebKit/537.36 (KHTML, like Gecko) draw.io/21.2.8 Chrome/112.0.5615.165 Electron/24.2.0 Safari/537.36" etag="wKbUuzpYXKa6z3wQXkG0" version="21.2.8" type="device">
  <diagram id="C5RBs43oDa-KdzZeNtuy" name="Page-1">
    <mxGraphModel dx="1692" dy="1687" grid="1" gridSize="10" guides="1" tooltips="1" connect="1" arrows="1" fold="1" page="1" pageScale="1" pageWidth="827" pageHeight="1169" math="0" shadow="0">
      <root>
        <mxCell id="WIyWlLk6GJQsqaUBKTNV-0" />
        <mxCell id="WIyWlLk6GJQsqaUBKTNV-1" parent="WIyWlLk6GJQsqaUBKTNV-0" />
        <mxCell id="QIhrArZh6IyTXWoNWmuS-77" value="AparelhoMusical" style="swimlane;fontStyle=1;align=center;verticalAlign=top;childLayout=stackLayout;horizontal=1;startSize=26;horizontalStack=0;resizeParent=1;resizeParentMax=0;resizeLast=0;collapsible=1;marginBottom=0;whiteSpace=wrap;html=1;" vertex="1" parent="WIyWlLk6GJQsqaUBKTNV-1">
          <mxGeometry x="-800" y="-420" width="190" height="136" as="geometry" />
        </mxCell>
        <mxCell id="QIhrArZh6IyTXWoNWmuS-79" value="" style="line;strokeWidth=1;fillColor=none;align=left;verticalAlign=middle;spacingTop=-1;spacingLeft=3;spacingRight=3;rotatable=0;labelPosition=right;points=[];portConstraint=eastwest;strokeColor=inherit;" vertex="1" parent="QIhrArZh6IyTXWoNWmuS-77">
          <mxGeometry y="26" width="190" height="10" as="geometry" />
        </mxCell>
        <mxCell id="QIhrArZh6IyTXWoNWmuS-101" value="+tocar(): void" style="text;strokeColor=none;fillColor=none;align=left;verticalAlign=top;spacingLeft=4;spacingRight=4;overflow=hidden;rotatable=0;points=[[0,0.5],[1,0.5]];portConstraint=eastwest;whiteSpace=wrap;html=1;" vertex="1" parent="QIhrArZh6IyTXWoNWmuS-77">
          <mxGeometry y="36" width="190" height="30" as="geometry" />
        </mxCell>
        <mxCell id="QIhrArZh6IyTXWoNWmuS-102" value="+ pausar(): void" style="text;strokeColor=none;fillColor=none;align=left;verticalAlign=top;spacingLeft=4;spacingRight=4;overflow=hidden;rotatable=0;points=[[0,0.5],[1,0.5]];portConstraint=eastwest;whiteSpace=wrap;html=1;" vertex="1" parent="QIhrArZh6IyTXWoNWmuS-77">
          <mxGeometry y="66" width="190" height="30" as="geometry" />
        </mxCell>
        <mxCell id="QIhrArZh6IyTXWoNWmuS-80" value="+ slecionarMusica: void" style="text;strokeColor=none;fillColor=none;align=left;verticalAlign=top;spacingLeft=4;spacingRight=4;overflow=hidden;rotatable=0;points=[[0,0.5],[1,0.5]];portConstraint=eastwest;whiteSpace=wrap;html=1;" vertex="1" parent="QIhrArZh6IyTXWoNWmuS-77">
          <mxGeometry y="96" width="190" height="40" as="geometry" />
        </mxCell>
        <mxCell id="QIhrArZh6IyTXWoNWmuS-116" style="edgeStyle=orthogonalEdgeStyle;rounded=0;orthogonalLoop=1;jettySize=auto;html=1;exitX=0.5;exitY=0;exitDx=0;exitDy=0;entryX=0.374;entryY=1.025;entryDx=0;entryDy=0;entryPerimeter=0;" edge="1" parent="WIyWlLk6GJQsqaUBKTNV-1" source="QIhrArZh6IyTXWoNWmuS-93" target="QIhrArZh6IyTXWoNWmuS-80">
          <mxGeometry relative="1" as="geometry">
            <mxPoint x="-730" y="-220" as="targetPoint" />
          </mxGeometry>
        </mxCell>
        <mxCell id="QIhrArZh6IyTXWoNWmuS-93" value="CdPlay" style="swimlane;fontStyle=1;align=center;verticalAlign=top;childLayout=stackLayout;horizontal=1;startSize=26;horizontalStack=0;resizeParent=1;resizeParentMax=0;resizeLast=0;collapsible=1;marginBottom=0;whiteSpace=wrap;html=1;" vertex="1" parent="WIyWlLk6GJQsqaUBKTNV-1">
          <mxGeometry x="-770" y="-70" width="160" height="34" as="geometry" />
        </mxCell>
        <mxCell id="QIhrArZh6IyTXWoNWmuS-95" value="" style="line;strokeWidth=1;fillColor=none;align=left;verticalAlign=middle;spacingTop=-1;spacingLeft=3;spacingRight=3;rotatable=0;labelPosition=right;points=[];portConstraint=eastwest;strokeColor=inherit;" vertex="1" parent="QIhrArZh6IyTXWoNWmuS-93">
          <mxGeometry y="26" width="160" height="8" as="geometry" />
        </mxCell>
        <mxCell id="QIhrArZh6IyTXWoNWmuS-117" style="edgeStyle=orthogonalEdgeStyle;rounded=0;orthogonalLoop=1;jettySize=auto;html=1;exitX=0.5;exitY=0;exitDx=0;exitDy=0;entryX=0.374;entryY=1;entryDx=0;entryDy=0;entryPerimeter=0;" edge="1" parent="WIyWlLk6GJQsqaUBKTNV-1" source="QIhrArZh6IyTXWoNWmuS-97" target="QIhrArZh6IyTXWoNWmuS-108">
          <mxGeometry relative="1" as="geometry">
            <mxPoint x="-480" y="-220" as="targetPoint" />
          </mxGeometry>
        </mxCell>
        <mxCell id="QIhrArZh6IyTXWoNWmuS-97" value="Telefone" style="swimlane;fontStyle=1;align=center;verticalAlign=top;childLayout=stackLayout;horizontal=1;startSize=26;horizontalStack=0;resizeParent=1;resizeParentMax=0;resizeLast=0;collapsible=1;marginBottom=0;whiteSpace=wrap;html=1;" vertex="1" parent="WIyWlLk6GJQsqaUBKTNV-1">
          <mxGeometry x="-460" y="-270" width="160" height="34" as="geometry" />
        </mxCell>
        <mxCell id="QIhrArZh6IyTXWoNWmuS-98" value="" style="line;strokeWidth=1;fillColor=none;align=left;verticalAlign=middle;spacingTop=-1;spacingLeft=3;spacingRight=3;rotatable=0;labelPosition=right;points=[];portConstraint=eastwest;strokeColor=inherit;" vertex="1" parent="QIhrArZh6IyTXWoNWmuS-97">
          <mxGeometry y="26" width="160" height="8" as="geometry" />
        </mxCell>
        <mxCell id="QIhrArZh6IyTXWoNWmuS-118" style="edgeStyle=orthogonalEdgeStyle;rounded=0;orthogonalLoop=1;jettySize=auto;html=1;exitX=0.5;exitY=0;exitDx=0;exitDy=0;entryX=0.579;entryY=1.05;entryDx=0;entryDy=0;entryPerimeter=0;" edge="1" parent="WIyWlLk6GJQsqaUBKTNV-1" source="QIhrArZh6IyTXWoNWmuS-99" target="QIhrArZh6IyTXWoNWmuS-114">
          <mxGeometry relative="1" as="geometry">
            <mxPoint x="-230" y="-220" as="targetPoint" />
          </mxGeometry>
        </mxCell>
        <mxCell id="QIhrArZh6IyTXWoNWmuS-99" value="Pam" style="swimlane;fontStyle=1;align=center;verticalAlign=top;childLayout=stackLayout;horizontal=1;startSize=26;horizontalStack=0;resizeParent=1;resizeParentMax=0;resizeLast=0;collapsible=1;marginBottom=0;whiteSpace=wrap;html=1;" vertex="1" parent="WIyWlLk6GJQsqaUBKTNV-1">
          <mxGeometry x="-40" y="-250" width="160" height="34" as="geometry" />
        </mxCell>
        <mxCell id="QIhrArZh6IyTXWoNWmuS-100" value="" style="line;strokeWidth=1;fillColor=none;align=left;verticalAlign=middle;spacingTop=-1;spacingLeft=3;spacingRight=3;rotatable=0;labelPosition=right;points=[];portConstraint=eastwest;strokeColor=inherit;" vertex="1" parent="QIhrArZh6IyTXWoNWmuS-99">
          <mxGeometry y="26" width="160" height="8" as="geometry" />
        </mxCell>
        <mxCell id="QIhrArZh6IyTXWoNWmuS-103" value="AparelhoTelefonico" style="swimlane;fontStyle=1;align=center;verticalAlign=top;childLayout=stackLayout;horizontal=1;startSize=26;horizontalStack=0;resizeParent=1;resizeParentMax=0;resizeLast=0;collapsible=1;marginBottom=0;whiteSpace=wrap;html=1;" vertex="1" parent="WIyWlLk6GJQsqaUBKTNV-1">
          <mxGeometry x="-508" y="-590" width="190" height="140" as="geometry" />
        </mxCell>
        <mxCell id="QIhrArZh6IyTXWoNWmuS-105" value="" style="line;strokeWidth=1;fillColor=none;align=left;verticalAlign=middle;spacingTop=-1;spacingLeft=3;spacingRight=3;rotatable=0;labelPosition=right;points=[];portConstraint=eastwest;strokeColor=inherit;" vertex="1" parent="QIhrArZh6IyTXWoNWmuS-103">
          <mxGeometry y="26" width="190" height="10" as="geometry" />
        </mxCell>
        <mxCell id="QIhrArZh6IyTXWoNWmuS-106" value="+ligar(): void" style="text;strokeColor=none;fillColor=none;align=left;verticalAlign=top;spacingLeft=4;spacingRight=4;overflow=hidden;rotatable=0;points=[[0,0.5],[1,0.5]];portConstraint=eastwest;whiteSpace=wrap;html=1;" vertex="1" parent="QIhrArZh6IyTXWoNWmuS-103">
          <mxGeometry y="36" width="190" height="34" as="geometry" />
        </mxCell>
        <mxCell id="QIhrArZh6IyTXWoNWmuS-107" value="+ atender(): void" style="text;strokeColor=none;fillColor=none;align=left;verticalAlign=top;spacingLeft=4;spacingRight=4;overflow=hidden;rotatable=0;points=[[0,0.5],[1,0.5]];portConstraint=eastwest;whiteSpace=wrap;html=1;" vertex="1" parent="QIhrArZh6IyTXWoNWmuS-103">
          <mxGeometry y="70" width="190" height="30" as="geometry" />
        </mxCell>
        <mxCell id="QIhrArZh6IyTXWoNWmuS-108" value="+ iniciarCorreioDeVoz: void" style="text;strokeColor=none;fillColor=none;align=left;verticalAlign=top;spacingLeft=4;spacingRight=4;overflow=hidden;rotatable=0;points=[[0,0.5],[1,0.5]];portConstraint=eastwest;whiteSpace=wrap;html=1;" vertex="1" parent="QIhrArZh6IyTXWoNWmuS-103">
          <mxGeometry y="100" width="190" height="40" as="geometry" />
        </mxCell>
        <mxCell id="QIhrArZh6IyTXWoNWmuS-109" value="AparelhoAcessoInternet" style="swimlane;fontStyle=1;align=center;verticalAlign=top;childLayout=stackLayout;horizontal=1;startSize=26;horizontalStack=0;resizeParent=1;resizeParentMax=0;resizeLast=0;collapsible=1;marginBottom=0;whiteSpace=wrap;html=1;" vertex="1" parent="WIyWlLk6GJQsqaUBKTNV-1">
          <mxGeometry x="-300" y="-206" width="190" height="136" as="geometry" />
        </mxCell>
        <mxCell id="QIhrArZh6IyTXWoNWmuS-111" value="" style="line;strokeWidth=1;fillColor=none;align=left;verticalAlign=middle;spacingTop=-1;spacingLeft=3;spacingRight=3;rotatable=0;labelPosition=right;points=[];portConstraint=eastwest;strokeColor=inherit;" vertex="1" parent="QIhrArZh6IyTXWoNWmuS-109">
          <mxGeometry y="26" width="190" height="10" as="geometry" />
        </mxCell>
        <mxCell id="QIhrArZh6IyTXWoNWmuS-112" value="+exibirPagina(): void" style="text;strokeColor=none;fillColor=none;align=left;verticalAlign=top;spacingLeft=4;spacingRight=4;overflow=hidden;rotatable=0;points=[[0,0.5],[1,0.5]];portConstraint=eastwest;whiteSpace=wrap;html=1;" vertex="1" parent="QIhrArZh6IyTXWoNWmuS-109">
          <mxGeometry y="36" width="190" height="30" as="geometry" />
        </mxCell>
        <mxCell id="QIhrArZh6IyTXWoNWmuS-113" value="+ atualizarPagina(): void" style="text;strokeColor=none;fillColor=none;align=left;verticalAlign=top;spacingLeft=4;spacingRight=4;overflow=hidden;rotatable=0;points=[[0,0.5],[1,0.5]];portConstraint=eastwest;whiteSpace=wrap;html=1;" vertex="1" parent="QIhrArZh6IyTXWoNWmuS-109">
          <mxGeometry y="66" width="190" height="30" as="geometry" />
        </mxCell>
        <mxCell id="QIhrArZh6IyTXWoNWmuS-114" value="+ adcionarPagina: void" style="text;strokeColor=none;fillColor=none;align=left;verticalAlign=top;spacingLeft=4;spacingRight=4;overflow=hidden;rotatable=0;points=[[0,0.5],[1,0.5]];portConstraint=eastwest;whiteSpace=wrap;html=1;" vertex="1" parent="QIhrArZh6IyTXWoNWmuS-109">
          <mxGeometry y="96" width="190" height="40" as="geometry" />
        </mxCell>
        <mxCell id="QIhrArZh6IyTXWoNWmuS-123" style="edgeStyle=orthogonalEdgeStyle;rounded=0;orthogonalLoop=1;jettySize=auto;html=1;exitX=0;exitY=0.5;exitDx=0;exitDy=0;entryX=0.989;entryY=0.2;entryDx=0;entryDy=0;entryPerimeter=0;" edge="1" parent="WIyWlLk6GJQsqaUBKTNV-1" source="QIhrArZh6IyTXWoNWmuS-119" target="QIhrArZh6IyTXWoNWmuS-80">
          <mxGeometry relative="1" as="geometry" />
        </mxCell>
        <mxCell id="QIhrArZh6IyTXWoNWmuS-124" style="edgeStyle=orthogonalEdgeStyle;rounded=0;orthogonalLoop=1;jettySize=auto;html=1;exitX=1;exitY=0.5;exitDx=0;exitDy=0;entryX=0;entryY=0.5;entryDx=0;entryDy=0;" edge="1" parent="WIyWlLk6GJQsqaUBKTNV-1" source="QIhrArZh6IyTXWoNWmuS-119" target="QIhrArZh6IyTXWoNWmuS-112">
          <mxGeometry relative="1" as="geometry" />
        </mxCell>
        <mxCell id="QIhrArZh6IyTXWoNWmuS-125" style="edgeStyle=orthogonalEdgeStyle;rounded=0;orthogonalLoop=1;jettySize=auto;html=1;exitX=0.5;exitY=0;exitDx=0;exitDy=0;" edge="1" parent="WIyWlLk6GJQsqaUBKTNV-1" source="QIhrArZh6IyTXWoNWmuS-119" target="QIhrArZh6IyTXWoNWmuS-107">
          <mxGeometry relative="1" as="geometry" />
        </mxCell>
        <mxCell id="QIhrArZh6IyTXWoNWmuS-119" value="SmartPhone" style="swimlane;fontStyle=1;align=center;verticalAlign=top;childLayout=stackLayout;horizontal=1;startSize=26;horizontalStack=0;resizeParent=1;resizeParentMax=0;resizeLast=0;collapsible=1;marginBottom=0;whiteSpace=wrap;html=1;" vertex="1" parent="WIyWlLk6GJQsqaUBKTNV-1">
          <mxGeometry x="-510" y="100" width="160" height="34" as="geometry" />
        </mxCell>
        <mxCell id="QIhrArZh6IyTXWoNWmuS-121" value="" style="line;strokeWidth=1;fillColor=none;align=left;verticalAlign=middle;spacingTop=-1;spacingLeft=3;spacingRight=3;rotatable=0;labelPosition=right;points=[];portConstraint=eastwest;strokeColor=inherit;" vertex="1" parent="QIhrArZh6IyTXWoNWmuS-119">
          <mxGeometry y="26" width="160" height="8" as="geometry" />
        </mxCell>
      </root>
    </mxGraphModel>
  </diagram>
</mxfile>
